<svg width="22" height="22" viewBox="0 0 22 22" fill="none" xmlns="http://www.w3.org/2000/svg">
<path fill-rule="evenodd" clip-rule="evenodd" d="M11 0C13.9382 0 16.7005 1.14421 18.7782 3.2218C20.8558 5.29947 22 8.0618 22 11C22 13.9382 20.8558 16.7005 18.7782 18.7782C16.7005 20.8558 13.9382 22 11 22C8.0618 22 5.29942 20.8558 3.2218 18.7782C1.14421 16.7005 0 13.9382 0 11C0 8.0618 1.14421 5.29942 3.2218 3.2218C5.29942 1.14421 8.06175 0 11 0ZM10.108 14.5294L16.2553 8.38204C16.507 8.13033 16.507 7.72226 16.2553 7.47055C16.0036 7.21884 15.5955 7.21884 15.3438 7.47055L9.65228 13.1622L6.65616 10.1661C6.40445 9.91439 5.99633 9.91439 5.74466 10.1661C5.49295 10.4179 5.49295 10.8259 5.74466 11.0776L9.19652 14.5294C9.32237 14.6553 9.48733 14.7182 9.65228 14.7182C9.8172 14.7182 9.98216 14.6553 10.108 14.5294Z" fill="#2ECC72"/>
</svg>
