<svg width="26" height="32" viewBox="0 0 26 32" fill="none" xmlns="http://www.w3.org/2000/svg">
<path fill-rule="evenodd" clip-rule="evenodd" d="M26 27.7342L24.1275 6.98158C24.0938 6.5709 23.7435 6.25957 23.3192 6.25957H19.372C19.3653 2.80853 16.5093 0 13 0C9.49067 0 6.63472 2.80853 6.62798 6.25957H2.68083C2.26321 6.25957 1.91295 6.5709 1.87254 6.98158L0 27.7342V27.8071C0 30.1188 2.16218 32 4.81606 32H21.1839C23.8378 32 26 30.1188 26 27.8071V27.7342ZM13 1.58973C15.6202 1.58973 17.7487 3.68288 17.7554 6.25957H8.24456C8.2513 3.68288 10.3798 1.58973 13 1.58973ZM4.81606 30.4036H21.1839C22.9352 30.4036 24.3632 29.2577 24.3834 27.8402L22.5782 7.84931H19.372V10.638C19.372 11.0751 19.0083 11.4328 18.5637 11.4328C18.1192 11.4328 17.7554 11.0751 17.7554 10.638V7.84931H8.24456V10.638C8.24456 11.0751 7.88083 11.4328 7.43627 11.4328C6.99171 11.4328 6.62798 11.0751 6.62798 10.638V7.84931H3.42176L1.61658 27.8336C1.63679 29.2577 3.06477 30.4036 4.81606 30.4036Z" fill="black"/>
</svg>
